<svg width="253" height="252" viewBox="0 0 253 252" fill="none" xmlns="http://www.w3.org/2000/svg">
<path d="M180.39 143.3H108.727V69.3626C109.329 51.0632 116.726 33.9691 129.711 20.9567C157.653 -6.98557 203.128 -6.98557 231.07 20.9567C244.603 34.4896 252.054 52.4877 252.054 71.6364C252.054 90.7851 244.603 108.783 231.07 122.316C217.537 135.849 199.539 143.3 180.39 143.3ZM143.326 108.701H180.39C190.28 108.701 199.594 104.838 206.607 97.8528C213.62 90.8399 217.455 81.5531 217.455 71.6364C217.455 61.7196 213.592 52.4329 206.607 45.4199C192.143 30.9557 168.638 30.9557 154.174 45.4199C147.161 52.4329 143.326 61.7196 143.326 71.6364V108.701Z" fill="#52BFE9"/>
<path d="M71.6637 108.7H143.328V182.637C142.725 200.937 135.328 218.031 122.343 231.043C94.4011 258.985 48.9264 258.985 20.9841 231.043C7.45127 217.51 0 199.512 0 180.363C0 161.215 7.45127 143.217 20.9841 129.684C34.5169 116.151 52.5151 108.7 71.6637 108.7ZM108.728 143.299H71.6637C61.7744 143.299 52.4603 147.161 45.4473 154.147C38.4343 161.16 34.5991 170.447 34.5991 180.363C34.5991 190.28 38.4617 199.567 45.4473 206.58C59.9116 221.044 83.416 221.044 97.8802 206.58C104.893 199.567 108.728 190.28 108.728 180.363V143.299Z" fill="#F7DE00"/>
<path d="M172.533 143.302H78.8992C69.3385 143.302 61.6133 135.55 61.6133 126.016C61.6133 116.483 69.3659 108.73 78.8992 108.73H172.533C182.094 108.73 189.819 116.483 189.819 126.016C189.819 135.55 182.066 143.302 172.533 143.302Z" fill="#8B55A1"/>
<path d="M180.389 0.136719C161.241 0.136719 143.242 7.588 129.71 21.1208C116.177 34.6537 108.726 52.6518 108.726 71.8005V180.337V179.981C108.726 189.87 104.863 199.541 97.8773 206.554C90.8644 213.566 81.5776 217.402 71.6609 217.402C62.1002 217.402 54.375 225.154 54.375 234.688C54.375 244.248 62.1276 251.973 71.6609 251.973C90.8096 251.973 108.808 244.522 122.341 230.989C135.873 217.456 143.325 199.102 143.325 179.954V180.31V71.8005C143.325 61.8837 147.187 52.597 154.173 45.584C161.186 38.5711 170.472 34.7358 180.389 34.7358C189.95 34.7358 197.675 26.9832 197.675 17.45C197.675 7.88933 189.923 0.164113 180.389 0.164113V0.136719Z" fill="#743492"/>
</svg>
